<svg xmlns="http://www.w3.org/2000/svg" xmlns:xlink="http://www.w3.org/1999/xlink" width="374" zoomAndPan="magnify" viewBox="0 0 280.5 137.999998" height="184" preserveAspectRatio="xMidYMid meet" version="1.0"><defs><clipPath id="1c37a355ee"><path d="M 10 12 L 266.402344 12 L 266.402344 137.875 L 10 137.875 Z M 10 12 " clip-rule="nonzero"/></clipPath><clipPath id="e7cee689d1"><path d="M 10 1 L 266.402344 1 L 266.402344 127.394531 L 10 127.394531 Z M 10 1 " clip-rule="nonzero"/></clipPath></defs><g clip-path="url(#1c37a355ee)"><path fill="#1c75bc" d="M 266.402344 27.167969 L 221.683594 116.703125 C 216.066406 127.941406 205.746094 135.535156 193.351562 137.550781 C 191.226562 137.890625 189.109375 138.066406 187.003906 138.066406 C 176.867188 138.066406 167.238281 134.101562 159.878906 126.734375 L 135.574219 102.40625 L 128.433594 116.691406 C 122.816406 127.933594 112.496094 135.535156 100.101562 137.539062 C 97.972656 137.882812 95.859375 138.058594 93.761719 138.058594 C 83.628906 138.058594 74 134.089844 66.640625 126.722656 L 35.574219 95.628906 L 14.261719 74.296875 C 8.863281 68.894531 8.863281 60.144531 14.261719 54.75 L 45.335938 85.855469 C 51.035156 91.558594 58.867188 94.070312 66.824219 92.796875 C 74.78125 91.507812 81.410156 86.632812 85.011719 79.410156 L 107.851562 33.675781 C 113.464844 22.4375 123.796875 14.84375 136.191406 12.828125 C 148.578125 10.816406 160.777344 14.75 169.652344 23.644531 L 173.171875 27.167969 L 142.335938 88.914062 C 147.503906 92.40625 153.738281 93.832031 160.066406 92.808594 C 168.023438 91.515625 174.648438 86.640625 178.25 79.421875 L 201.101562 33.6875 C 206.707031 22.445312 217.027344 14.84375 229.421875 12.828125 C 241.796875 10.816406 254.007812 14.75 262.882812 23.644531 Z M 266.402344 27.167969 " fill-opacity="1" fill-rule="nonzero"/></g><g clip-path="url(#e7cee689d1)"><path fill="#0ea5e9" d="M 266.214844 16.460938 L 221.527344 105.847656 C 215.917969 117.066406 205.605469 124.648438 193.21875 126.660156 C 191.09375 127 188.976562 127.175781 186.875 127.175781 C 176.746094 127.175781 167.125 123.214844 159.769531 115.859375 L 135.480469 91.574219 L 128.34375 105.835938 C 122.734375 117.058594 112.421875 124.648438 100.035156 126.648438 C 97.910156 126.988281 95.796875 127.164062 93.703125 127.164062 C 83.574219 127.164062 73.953125 123.203125 66.597656 115.851562 L 35.554688 84.808594 L 14.257812 63.507812 C 8.863281 58.117188 8.863281 49.378906 14.257812 43.996094 L 45.3125 75.050781 C 51.003906 80.742188 58.832031 83.25 66.785156 81.980469 C 74.734375 80.691406 81.355469 75.824219 84.957031 68.613281 L 107.78125 22.957031 C 113.390625 11.734375 123.714844 4.15625 136.101562 2.144531 C 148.476562 0.132812 160.667969 4.0625 169.539062 12.941406 L 173.054688 16.460938 L 142.238281 78.101562 C 147.40625 81.589844 153.632812 83.011719 159.957031 81.992188 C 167.90625 80.703125 174.527344 75.835938 178.128906 68.625 L 200.960938 22.96875 C 206.5625 11.746094 216.875 4.15625 229.261719 2.144531 C 241.628906 0.132812 253.828125 4.0625 262.699219 12.941406 Z M 266.214844 16.460938 " fill-opacity="1" fill-rule="nonzero"/></g></svg>